<?xml version="1.0" encoding="utf-8"?>
<!-- Generator: Adobe Illustrator 22.0.0, SVG Export Plug-In . SVG Version: 6.00 Build 0)  -->
<svg version="1.1" id="图层_1" xmlns="http://www.w3.org/2000/svg" xmlns:xlink="http://www.w3.org/1999/xlink" x="0px" y="0px"
	 viewBox="0 0 1024 1024" style="enable-background:new 0 0 1024 1024;" xml:space="preserve">
<style type="text/css">
	.st0{fill-rule:evenodd;clip-rule:evenodd;fill:#94E4D4;}
</style>
<g>
	<g>
		<path class="st0" d="M972,130.5c-50.7-29.3-115.4-11.9-144.7,38.8L438.9,842c-29.3,50.7-11.9,115.5,38.8,144.7
			c50.7,29.3,115.4,11.9,144.7-38.8l388.4-672.7C1040,224.6,1022.7,159.8,972,130.5z M407.1,41c-50.7-29.3-115.4-11.9-144.7,38.8
			L15.2,507.9C-14,558.5,3.3,623.3,54,652.6c50.7,29.3,115.5,11.9,144.7-38.8l247.2-428.1C475.1,135,457.7,70.3,407.1,41z"/>
	</g>
</g>
</svg>
